# xmcd
# Copyright (C) 1995-1998 Ti Kan
#
# Track frame offsets:
#       150
#       17577
#       35662
#       55820
#       77947
#       96255
#       113567
#       131752
#       146830
#       170700
#       182132
#
# Disc length: 2811 seconds
#
# Revision: 0
# Processed by: cddbd v1.5.2PL0 Copyright (c) Steve Scherf et al.
# Submitted via: CD-Import v1.0
#
DISCID=9a0af90b
DTITLE=Aqualung - Aqualung
DYEAR=2002
DGENRE=
TTITLE0=Strange and Beautiful
TTITLE1=Falling Out Of Love
TTITLE2=Good Times Gonna Come
TTITLE3=If I Fall
TTITLE4=Just For A Moment
TTITLE5=Tongue Tied
TTITLE6=Can't Get You Out Of My Mind
TTITLE7=Everything Changed
TTITLE8=Gentle
TTITLE9=Nowhere
TTITLE10=Halfway To The Bottom
EXTD=
EXTT0=
EXTT1=
EXTT2=
EXTT3=
EXTT4=
EXTT5=
EXTT6=
EXTT7=
EXTT8=
EXTT9=
EXTT10=
PLAYORDER=
